# xmcd
#
# Track frame offsets:
# 150
# 14988
# 26774
# 44897
# 59254
# 75555
# 98438
# 113277
# 136741
# 153352
# 172619
# 193458
# 204795
# 214719
# 227015
# 242796
# 254509
# 265949
#
# Disc length: 3772 seconds
#
#
# Revision: 1
# Processed by: cddbd v1.5.2PL0 Copyright (c) Steve Scherf et al.
# Submitted via: FreeRIP 2.943 
#
DISCID=ef0eba12
DTITLE=So modao - Vol 2
DYEAR=1900
DGENRE=Sertanejo
TTITLE0=Tiao Carreiro e Pardinho - Carteiro
TTITLE1=Rio negro e Solimoes - Carro Velho
TTITLE2=Sergio Reis - Boiadeiro Errante
TTITLE3=Felipe e Falcao - Amargurado
TTITLE4=Tiao Carreiro e Pardinho - Encantos da Natureza
TTITLE5=Chitaozinho e Xororo - Pout Porri
TTITLE6=Chico Rey e Parana - Blusa Vermelha
TTITLE7=Joao Paulo e Daniel - Dia de Visita
TTITLE8=Joao Paulo e Daniel - Olhos Claros
TTITLE9=Christian e Ralf - Chora peito
TTITLE10=Milionario e Jose Rico - Levando a Vida
TTITLE11=Chitaozinho e Xororo - Pout Porri - 50 Dias Apaixonado
TTITLE12=Joao Paulo e Daniel - Pout Porri - Chora Vida
TTITLE13=Mato Grosso E Mathias - Pedaço De Minha Vida
TTITLE14=Daniel - A Loira Do Carro Branco
TTITLE15=Bruno E Marrone - Somos Todos Iguais
TTITLE16=Bruno E Marrone - Morena Proibida
TTITLE17=Leonardo - Saudades De Minha Terra
EXTD=
EXTT0=
EXTT1=
EXTT2=
EXTT3=
EXTT4=
EXTT5=
EXTT6=
EXTT7=
EXTT8=
EXTT9=
EXTT10=
EXTT11=
EXTT12=
EXTT13=
EXTT14=
EXTT15=
EXTT16=
EXTT17=
PLAYORDER=
